# xmcd
#
# Track frame offsets:
#	150
#	11774
#	25328
#	39695
#	52362
#	64653
#	77212
#	90365
#	103382
#	118218
#	133085
#	146093
#	157263
#	171717
#	186092
#	200853
#	215099
#	229872
#	244465
#	260829
#	273386
#	286084
#
# Disc length: 4000 seconds
#
# Revision: 0
# Processed by: cddbd v1.5.2PL0 Copyright (c) Steve Scherf et al.
# Submitted via: audiograbber 1.83.01
#
DISCID=6e0f9e16
DTITLE=Tiesto - In search of sunrise cd1
DYEAR=1900
DGENRE=
TTITLE0=Virginia, Georgia And Caroline
TTITLE1=I See A Million People (But All I Can See Is You )
TTITLE2=Blues In The Night (My Mama Done Tol' Me)
TTITLE3=Mermaid Song
TTITLE4=Tappin' Off
TTITLE5=I Get The Neck Of The Chicken
TTITLE6=Lordy
TTITLE7=Conchita
TTITLE8=Hey, Doc!
TTITLE9=Moment I Laid Eyes On You
TTITLE10=I Want To Rock
TTITLE11=Says Who Says You, Says I!
TTITLE12=Who Calls
TTITLE13=I'll Be Around
TTITLE14=Minnie The Moocher
TTITLE15=Let's Go Joe
TTITLE16=Nain Nain (No No)
TTITLE17=Tain't No Good
TTITLE18=Ogeechee River Lullaby
TTITLE19=I Get The Neck Of The Chicken
TTITLE20=Mrs. Finnigan
TTITLE21=Smo-O-O-Oth One
EXTD=
EXTT0=
EXTT1=
EXTT2=
EXTT3=
EXTT4=
EXTT5=
EXTT6=
EXTT7=
EXTT8=
EXTT9=
EXTT10=
EXTT11=
EXTT12=
EXTT13=
EXTT14=
EXTT15=
EXTT16=
EXTT17=
EXTT18=
EXTT19=
EXTT20=
EXTT21=
PLAYORDER=
